<?xml version="1.0" standalone="no"?>
<svg width="64" height="64" viewBox="0 0 1024 768" version="1.1" xmlns="http://www.w3.org/2000/svg">
  <path d="M512 256q54 0 91 37t37 91v256q0 54 -37 91t-91 37t-91 -37t-37 -91v-256q0 -54 37 -91t91 -37zM461 644q0 23 14.5 37t36.5 14t36.5 -14t14.5 -37v-264q0 -23 -14.5 -37t-36.5 -14t-36.5 14t-14.5 37v264zM738 384q0 -94 -67 -156t-159 -62t-159 62t-67 156h-73    q0 -107 74.5 -188.5t181.5 -97.5v-141h86v141q107 16 181.5 97.5t74.5 188.5h-73z" transform="matrix(1,0,0,-1,0,768)"/>
</svg>